<svg id="Layer_2" data-name="Layer 2" xmlns="http://www.w3.org/2000/svg" viewBox="0 0 442.63 361.27"><defs><style>.cls-1{fill:#a33ee5;}.cls-1,.cls-10,.cls-11,.cls-2,.cls-3,.cls-4,.cls-5,.cls-6,.cls-7,.cls-8,.cls-9{stroke:#1e1e1e;stroke-miterlimit:10;stroke-width:0.5px;opacity:0.75;}.cls-2{fill:#354c72;}.cls-3{fill:#e5a53e;}.cls-4{fill:#ef5d14;}.cls-5{fill:#ce4992;}.cls-6{fill:#5e3c77;}.cls-7{fill:#7e8c89;}.cls-8{fill:#bc1b1b;}.cls-9{fill:#a332b7;}.cls-10{fill:#dd8f1d;}.cls-11{fill:#d64334;}</style></defs><title>canada</title><g id="NB"><polygon class="cls-1" points="390.37 288.93 395.51 279.91 405.89 279.85 411.14 288.81 406 297.83 395.62 297.89 390.37 288.93"/><polygon class="cls-1" points="374.77 315.99 379.91 306.97 390.29 306.91 395.53 315.87 390.39 324.89 380.01 324.95 374.77 315.99"/><polygon class="cls-1" points="374.77 297.95 379.91 288.93 390.29 288.87 395.53 297.83 390.39 306.85 380.01 306.91 374.77 297.95"/><polygon class="cls-1" points="359.17 306.97 364.31 297.95 374.69 297.89 379.93 306.85 374.79 315.87 364.41 315.93 359.17 306.97"/><polygon class="cls-1" points="343.56 315.99 348.7 306.97 359.08 306.91 364.33 315.87 359.19 324.89 348.81 324.95 343.56 315.99"/><polygon class="cls-1" points="343.56 297.95 348.7 288.93 359.08 288.87 364.33 297.83 359.19 306.85 348.81 306.91 343.56 297.95"/></g><g id="NL"><polygon class="cls-2" points="421.58 252.85 426.72 243.83 437.1 243.77 442.34 252.73 437.2 261.75 426.82 261.81 421.58 252.85"/><polygon class="cls-2" points="405.98 261.87 411.12 252.85 421.5 252.79 426.74 261.75 421.6 270.77 411.22 270.83 405.98 261.87"/><polygon class="cls-2" points="405.98 243.83 411.12 234.81 421.5 234.75 426.74 243.71 421.6 252.73 411.22 252.79 405.98 243.83"/><polygon class="cls-2" points="390.37 216.77 395.51 207.75 405.89 207.69 411.14 216.66 406 225.68 395.62 225.73 390.37 216.77"/><polygon class="cls-2" points="374.77 225.79 379.91 216.77 390.29 216.71 395.53 225.68 390.39 234.69 380.01 234.75 374.77 225.79"/><polygon class="cls-2" points="374.77 207.75 379.91 198.73 390.29 198.68 395.53 207.64 390.39 216.66 380.01 216.71 374.77 207.75"/><polygon class="cls-2" points="359.17 234.81 364.31 225.79 374.69 225.73 379.93 234.69 374.79 243.71 364.41 243.77 359.17 234.81"/><polygon class="cls-2" points="359.17 216.77 364.31 207.75 374.69 207.69 379.93 216.66 374.79 225.68 364.41 225.73 359.17 216.77"/><polygon class="cls-2" points="343.56 243.83 348.7 234.81 359.08 234.75 364.33 243.71 359.19 252.73 348.81 252.79 343.56 243.83"/><polygon class="cls-2" points="343.56 225.79 348.7 216.77 359.08 216.71 364.33 225.68 359.19 234.69 348.81 234.75 343.56 225.79"/><polygon class="cls-2" points="343.56 207.75 348.7 198.73 359.08 198.68 364.33 207.64 359.19 216.66 348.81 216.71 343.56 207.75"/></g><g id="QC"><polygon class="cls-3" points="374.77 243.83 379.91 234.81 390.29 234.75 395.53 243.71 390.39 252.73 380.01 252.79 374.77 243.83"/><polygon class="cls-3" points="359.17 252.85 364.31 243.83 374.69 243.77 379.93 252.73 374.79 261.75 364.41 261.81 359.17 252.85"/><polygon class="cls-3" points="343.56 279.91 348.7 270.89 359.08 270.83 364.33 279.79 359.19 288.81 348.81 288.87 343.56 279.91"/><polygon class="cls-3" points="343.56 261.87 348.7 252.85 359.08 252.79 364.33 261.75 359.19 270.77 348.81 270.83 343.56 261.87"/><polygon class="cls-3" points="327.96 325 333.1 315.99 343.48 315.93 348.72 324.89 343.58 333.91 333.2 333.97 327.96 325"/><polygon class="cls-3" points="327.96 306.97 333.1 297.95 343.48 297.89 348.72 306.85 343.58 315.87 333.2 315.93 327.96 306.97"/><polygon class="cls-3" points="327.96 288.93 333.1 279.91 343.48 279.85 348.72 288.81 343.58 297.83 333.2 297.89 327.96 288.93"/><polygon class="cls-3" points="327.96 270.89 333.1 261.87 343.48 261.81 348.72 270.77 343.58 279.79 333.2 279.85 327.96 270.89"/><polygon class="cls-3" points="327.96 252.85 333.1 243.83 343.48 243.77 348.72 252.73 343.58 261.75 333.2 261.81 327.96 252.85"/><polygon class="cls-3" points="327.96 234.81 333.1 225.79 343.48 225.73 348.72 234.69 343.58 243.71 333.2 243.77 327.96 234.81"/><polygon class="cls-3" points="327.96 216.77 333.1 207.75 343.48 207.69 348.72 216.66 343.58 225.68 333.2 225.73 327.96 216.77"/><polygon class="cls-3" points="327.96 198.73 333.1 189.72 343.48 189.66 348.72 198.62 343.58 207.64 333.2 207.69 327.96 198.73"/><polygon class="cls-3" points="312.36 315.99 317.5 306.97 327.88 306.91 333.12 315.87 327.98 324.89 317.6 324.95 312.36 315.99"/><polygon class="cls-3" points="312.36 297.95 317.5 288.93 327.88 288.87 333.12 297.83 327.98 306.85 317.6 306.91 312.36 297.95"/><polygon class="cls-3" points="312.36 279.91 317.5 270.89 327.88 270.83 333.12 279.79 327.98 288.81 317.6 288.87 312.36 279.91"/><polygon class="cls-3" points="312.36 261.87 317.5 252.85 327.88 252.79 333.12 261.75 327.98 270.77 317.6 270.83 312.36 261.87"/><polygon class="cls-3" points="312.36 243.83 317.5 234.81 327.88 234.75 333.12 243.71 327.98 252.73 317.6 252.79 312.36 243.83"/><polygon class="cls-3" points="312.36 225.79 317.5 216.77 327.88 216.71 333.12 225.68 327.98 234.69 317.6 234.75 312.36 225.79"/><polygon class="cls-3" points="312.36 207.75 317.5 198.73 327.88 198.68 333.12 207.64 327.98 216.66 317.6 216.71 312.36 207.75"/><polygon class="cls-3" points="296.75 306.97 301.89 297.95 312.27 297.89 317.52 306.85 312.38 315.87 302 315.93 296.75 306.97"/><polygon class="cls-3" points="296.75 288.93 301.89 279.91 312.27 279.85 317.52 288.81 312.38 297.83 302 297.89 296.75 288.93"/><polygon class="cls-3" points="296.75 270.89 301.89 261.87 312.27 261.81 317.52 270.77 312.38 279.79 302 279.85 296.75 270.89"/><polygon class="cls-3" points="296.75 252.85 301.89 243.83 312.27 243.77 317.52 252.73 312.38 261.75 302 261.81 296.75 252.85"/><polygon class="cls-3" points="296.75 234.81 301.89 225.79 312.27 225.73 317.52 234.69 312.38 243.71 302 243.77 296.75 234.81"/><polygon class="cls-3" points="296.75 216.77 301.89 207.75 312.27 207.69 317.52 216.66 312.38 225.68 302 225.73 296.75 216.77"/><polygon class="cls-3" points="296.75 198.73 301.89 189.72 312.27 189.66 317.52 198.62 312.38 207.64 302 207.69 296.75 198.73"/><polygon class="cls-3" points="281.15 279.91 286.29 270.89 296.67 270.83 301.91 279.79 296.77 288.81 286.39 288.87 281.15 279.91"/><polygon class="cls-3" points="281.15 261.87 286.29 252.85 296.67 252.79 301.91 261.75 296.77 270.77 286.39 270.83 281.15 261.87"/><polygon class="cls-3" points="281.15 243.83 286.29 234.81 296.67 234.75 301.91 243.71 296.77 252.73 286.39 252.79 281.15 243.83"/><polygon class="cls-3" points="281.15 225.79 286.29 216.77 296.67 216.71 301.91 225.68 296.77 234.69 286.39 234.75 281.15 225.79"/><polygon class="cls-3" points="281.15 207.75 286.29 198.73 296.67 198.68 301.91 207.64 296.77 216.66 286.39 216.71 281.15 207.75"/><polygon class="cls-3" points="281.15 189.72 286.29 180.69 296.67 180.64 301.91 189.6 296.77 198.62 286.39 198.68 281.15 189.72"/><polygon class="cls-3" points="265.55 198.73 270.69 189.72 281.07 189.66 286.31 198.62 281.17 207.64 270.79 207.69 265.55 198.73"/><polygon class="cls-3" points="265.55 180.69 270.69 171.68 281.07 171.62 286.31 180.58 281.17 189.6 270.79 189.66 265.55 180.69"/></g><g id="ON"><polygon class="cls-4" points="296.75 325 301.89 315.99 312.27 315.93 317.52 324.89 312.38 333.91 302 333.97 296.75 325"/><polygon class="cls-4" points="281.15 297.95 286.29 288.93 296.67 288.87 301.91 297.83 296.77 306.85 286.39 306.91 281.15 297.95"/><polygon class="cls-4" points="296.75 343.04 301.89 334.02 312.27 333.97 317.52 342.93 312.38 351.95 302 352 296.75 343.04"/><polygon class="cls-4" points="281.15 352.06 286.29 343.04 296.67 342.99 301.91 351.95 296.77 360.96 286.39 361.02 281.15 352.06"/><polygon class="cls-4" points="281.15 334.02 286.29 325 296.67 324.95 301.91 333.91 296.77 342.93 286.39 342.99 281.15 334.02"/><polygon class="cls-4" points="281.15 315.99 286.29 306.97 296.67 306.91 301.91 315.87 296.77 324.89 286.39 324.95 281.15 315.99"/><polygon class="cls-4" points="265.55 325 270.69 315.99 281.07 315.93 286.31 324.89 281.17 333.91 270.79 333.97 265.55 325"/><polygon class="cls-4" points="265.55 306.97 270.69 297.95 281.07 297.89 286.31 306.85 281.17 315.87 270.79 315.93 265.55 306.97"/><polygon class="cls-4" points="265.55 288.93 270.69 279.91 281.07 279.85 286.31 288.81 281.17 297.83 270.79 297.89 265.55 288.93"/><polygon class="cls-4" points="249.94 315.99 255.08 306.97 265.46 306.91 270.7 315.87 265.56 324.89 255.18 324.95 249.94 315.99"/><polygon class="cls-4" points="249.94 297.95 255.08 288.93 265.46 288.87 270.7 297.83 265.56 306.85 255.18 306.91 249.94 297.95"/><polygon class="cls-4" points="249.94 279.91 255.08 270.89 265.46 270.83 270.7 279.79 265.56 288.81 255.18 288.87 249.94 279.91"/><polygon class="cls-4" points="249.94 261.87 255.08 252.85 265.46 252.79 270.7 261.75 265.56 270.77 255.18 270.83 249.94 261.87"/><polygon class="cls-4" points="234.34 306.97 239.48 297.95 249.86 297.89 255.1 306.85 249.96 315.87 239.58 315.93 234.34 306.97"/><polygon class="cls-4" points="234.34 288.93 239.48 279.91 249.86 279.85 255.1 288.81 249.96 297.83 239.58 297.89 234.34 288.93"/><polygon class="cls-4" points="234.34 270.89 239.48 261.87 249.86 261.81 255.1 270.77 249.96 279.79 239.58 279.85 234.34 270.89"/><polygon class="cls-4" points="234.34 252.85 239.48 243.83 249.86 243.77 255.1 252.73 249.96 261.75 239.58 261.81 234.34 252.85"/><polygon class="cls-4" points="218.74 315.99 223.88 306.97 234.26 306.91 239.5 315.87 234.36 324.89 223.98 324.95 218.74 315.99"/><polygon class="cls-4" points="218.74 297.95 223.88 288.93 234.26 288.87 239.5 297.83 234.36 306.85 223.98 306.91 218.74 297.95"/><polygon class="cls-4" points="218.74 279.91 223.88 270.89 234.26 270.83 239.5 279.79 234.36 288.81 223.98 288.87 218.74 279.91"/><polygon class="cls-4" points="218.74 261.87 223.88 252.85 234.26 252.79 239.5 261.75 234.36 270.77 223.98 270.83 218.74 261.87"/><polygon class="cls-4" points="203.13 306.97 208.27 297.95 218.65 297.89 223.9 306.85 218.75 315.87 208.37 315.93 203.13 306.97"/><polygon class="cls-4" points="203.13 288.93 208.27 279.91 218.65 279.85 223.9 288.81 218.75 297.83 208.37 297.89 203.13 288.93"/><polygon class="cls-4" points="203.13 270.89 208.27 261.87 218.65 261.81 223.9 270.77 218.75 279.79 208.37 279.85 203.13 270.89"/></g><g id="MB"><polygon class="cls-5" points="203.13 252.85 208.27 243.83 218.65 243.77 223.9 252.73 218.75 261.75 208.37 261.81 203.13 252.85"/><polygon class="cls-5" points="187.53 297.95 192.67 288.93 203.05 288.87 208.29 297.83 203.15 306.85 192.77 306.91 187.53 297.95"/><polygon class="cls-5" points="187.53 279.91 192.67 270.89 203.05 270.83 208.29 279.79 203.15 288.81 192.77 288.87 187.53 279.91"/><polygon class="cls-5" points="187.53 261.87 192.67 252.85 203.05 252.79 208.29 261.75 203.15 270.77 192.77 270.83 187.53 261.87"/><polygon class="cls-5" points="187.53 243.83 192.67 234.81 203.05 234.75 208.29 243.71 203.15 252.73 192.77 252.79 187.53 243.83"/><polygon class="cls-5" points="187.53 225.79 192.67 216.77 203.05 216.71 208.29 225.68 203.15 234.69 192.77 234.75 187.53 225.79"/><polygon class="cls-5" points="171.93 306.97 177.07 297.95 187.45 297.89 192.69 306.85 187.55 315.87 177.17 315.93 171.93 306.97"/><polygon class="cls-5" points="171.93 288.93 177.07 279.91 187.45 279.85 192.69 288.81 187.55 297.83 177.17 297.89 171.93 288.93"/><polygon class="cls-5" points="171.93 270.89 177.07 261.87 187.45 261.81 192.69 270.77 187.55 279.79 177.17 279.85 171.93 270.89"/><polygon class="cls-5" points="171.93 252.85 177.07 243.83 187.45 243.77 192.69 252.73 187.55 261.75 177.17 261.81 171.93 252.85"/><polygon class="cls-5" points="171.93 234.81 177.07 225.79 187.45 225.73 192.69 234.69 187.55 243.71 177.17 243.77 171.93 234.81"/><polygon class="cls-5" points="171.93 216.77 177.07 207.75 187.45 207.69 192.69 216.66 187.55 225.68 177.17 225.73 171.93 216.77"/><polygon class="cls-5" points="156.32 297.95 161.46 288.93 171.84 288.87 177.09 297.83 171.94 306.85 161.56 306.91 156.32 297.95"/><polygon class="cls-5" points="156.32 279.91 161.46 270.89 171.84 270.83 177.09 279.79 171.94 288.81 161.56 288.87 156.32 279.91"/><polygon class="cls-5" points="156.32 261.87 161.46 252.85 171.84 252.79 177.09 261.75 171.94 270.77 161.56 270.83 156.32 261.87"/><polygon class="cls-5" points="156.32 243.83 161.46 234.81 171.84 234.75 177.09 243.71 171.94 252.73 161.56 252.79 156.32 243.83"/><polygon class="cls-5" points="156.32 225.79 161.46 216.77 171.84 216.71 177.09 225.68 171.94 234.69 161.56 234.75 156.32 225.79"/></g><g id="SK"><polygon class="cls-6" points="140.72 306.97 145.86 297.95 156.24 297.89 161.48 306.85 156.34 315.87 145.96 315.93 140.72 306.97"/><polygon class="cls-6" points="140.72 288.93 145.86 279.91 156.24 279.85 161.48 288.81 156.34 297.83 145.96 297.89 140.72 288.93"/><polygon class="cls-6" points="140.72 270.89 145.86 261.87 156.24 261.81 161.48 270.77 156.34 279.79 145.96 279.85 140.72 270.89"/><polygon class="cls-6" points="140.72 252.85 145.86 243.83 156.24 243.77 161.48 252.73 156.34 261.75 145.96 261.81 140.72 252.85"/><polygon class="cls-6" points="140.72 234.81 145.86 225.79 156.24 225.73 161.48 234.69 156.34 243.71 145.96 243.77 140.72 234.81"/><polygon class="cls-6" points="140.72 216.77 145.86 207.75 156.24 207.69 161.48 216.66 156.34 225.68 145.96 225.73 140.72 216.77"/><polygon class="cls-6" points="125.12 297.95 130.26 288.93 140.64 288.87 145.88 297.83 140.74 306.85 130.36 306.91 125.12 297.95"/><polygon class="cls-6" points="125.12 279.91 130.26 270.89 140.64 270.83 145.88 279.79 140.74 288.81 130.36 288.87 125.12 279.91"/><polygon class="cls-6" points="125.12 261.87 130.26 252.85 140.64 252.79 145.88 261.75 140.74 270.77 130.36 270.83 125.12 261.87"/><polygon class="cls-6" points="125.12 243.83 130.26 234.81 140.64 234.75 145.88 243.71 140.74 252.73 130.36 252.79 125.12 243.83"/><polygon class="cls-6" points="125.12 225.79 130.26 216.77 140.64 216.71 145.88 225.68 140.74 234.69 130.36 234.75 125.12 225.79"/><polygon class="cls-6" points="125.12 207.75 130.26 198.73 140.64 198.68 145.88 207.64 140.74 216.66 130.36 216.71 125.12 207.75"/><polygon class="cls-6" points="109.51 306.97 114.65 297.95 125.03 297.89 130.28 306.85 125.14 315.87 114.75 315.93 109.51 306.97"/><polygon class="cls-6" points="109.51 288.93 114.65 279.91 125.03 279.85 130.28 288.81 125.14 297.83 114.75 297.89 109.51 288.93"/><polygon class="cls-6" points="109.51 270.89 114.65 261.87 125.03 261.81 130.28 270.77 125.14 279.79 114.75 279.85 109.51 270.89"/></g><g id="NU"><polygon class="cls-7" points="296.75 162.66 301.89 153.64 312.27 153.58 317.52 162.54 312.38 171.56 302 171.62 296.75 162.66"/><polygon class="cls-7" points="296.75 144.62 301.89 135.6 312.27 135.54 317.52 144.5 312.38 153.52 302 153.58 296.75 144.62"/><polygon class="cls-7" points="296.75 126.58 301.89 117.56 312.27 117.5 317.52 126.46 312.38 135.48 302 135.54 296.75 126.58"/><polygon class="cls-7" points="281.15 153.64 286.29 144.62 296.67 144.56 301.91 153.52 296.77 162.54 286.39 162.6 281.15 153.64"/><polygon class="cls-7" points="281.15 135.6 286.29 126.58 296.67 126.52 301.91 135.48 296.77 144.5 286.39 144.56 281.15 135.6"/><polygon class="cls-7" points="281.15 117.56 286.29 108.54 296.67 108.48 301.91 117.44 296.77 126.46 286.39 126.52 281.15 117.56"/><polygon class="cls-7" points="265.55 144.62 270.69 135.6 281.07 135.54 286.31 144.5 281.17 153.52 270.79 153.58 265.55 144.62"/><polygon class="cls-7" points="265.55 126.58 270.69 117.56 281.07 117.5 286.31 126.46 281.17 135.48 270.79 135.54 265.55 126.58"/><polygon class="cls-7" points="265.55 108.54 270.69 99.52 281.07 99.46 286.31 108.42 281.17 117.44 270.79 117.5 265.55 108.54"/><polygon class="cls-7" points="249.94 135.6 255.08 126.58 265.46 126.52 270.7 135.48 265.56 144.5 255.18 144.56 249.94 135.6"/><polygon class="cls-7" points="249.94 117.56 255.08 108.54 265.46 108.48 270.7 117.44 265.56 126.46 255.18 126.52 249.94 117.56"/><polygon class="cls-7" points="249.94 99.52 255.08 90.5 265.46 90.44 270.7 99.41 265.56 108.42 255.18 108.48 249.94 99.52"/><polygon class="cls-7" points="234.34 126.58 239.48 117.56 249.86 117.5 255.1 126.46 249.96 135.48 239.58 135.54 234.34 126.58"/><polygon class="cls-7" points="234.34 108.54 239.48 99.52 249.86 99.46 255.1 108.42 249.96 117.44 239.58 117.5 234.34 108.54"/><polygon class="cls-7" points="234.34 90.5 239.48 81.48 249.86 81.42 255.1 90.39 249.96 99.41 239.58 99.46 234.34 90.5"/><polygon class="cls-7" points="218.74 171.68 223.88 162.66 234.26 162.6 239.5 171.56 234.36 180.58 223.98 180.64 218.74 171.68"/><polygon class="cls-7" points="218.74 153.64 223.88 144.62 234.26 144.56 239.5 153.52 234.36 162.54 223.98 162.6 218.74 153.64"/><polygon class="cls-7" points="218.74 135.6 223.88 126.58 234.26 126.52 239.5 135.48 234.36 144.5 223.98 144.56 218.74 135.6"/><polygon class="cls-7" points="218.74 117.56 223.88 108.54 234.26 108.48 239.5 117.44 234.36 126.46 223.98 126.52 218.74 117.56"/><polygon class="cls-7" points="218.74 99.52 223.88 90.5 234.26 90.44 239.5 99.41 234.36 108.42 223.98 108.48 218.74 99.52"/><polygon class="cls-7" points="218.74 81.48 223.88 72.46 234.26 72.41 239.5 81.37 234.36 90.39 223.98 90.44 218.74 81.48"/><polygon class="cls-7" points="218.74 9.33 223.88 0.31 234.26 0.25 239.5 9.21 234.36 18.23 223.98 18.29 218.74 9.33"/><polygon class="cls-7" points="203.13 180.69 208.27 171.68 218.65 171.62 223.9 180.58 218.75 189.6 208.37 189.66 203.13 180.69"/><polygon class="cls-7" points="203.13 162.66 208.27 153.64 218.65 153.58 223.9 162.54 218.75 171.56 208.37 171.62 203.13 162.66"/><polygon class="cls-7" points="203.13 144.62 208.27 135.6 218.65 135.54 223.9 144.5 218.75 153.52 208.37 153.58 203.13 144.62"/><polygon class="cls-7" points="203.13 108.54 208.27 99.52 218.65 99.46 223.9 108.42 218.75 117.44 208.37 117.5 203.13 108.54"/><polygon class="cls-7" points="203.13 90.5 208.27 81.48 218.65 81.42 223.9 90.39 218.75 99.41 208.37 99.46 203.13 90.5"/><polygon class="cls-7" points="203.13 72.46 208.27 63.44 218.65 63.39 223.9 72.35 218.75 81.37 208.37 81.42 203.13 72.46"/><polygon class="cls-7" points="203.13 54.42 208.27 45.41 218.65 45.35 223.9 54.31 218.75 63.33 208.37 63.39 203.13 54.42"/><polygon class="cls-7" points="203.13 36.39 208.27 27.37 218.65 27.31 223.9 36.27 218.75 45.29 208.37 45.35 203.13 36.39"/><polygon class="cls-7" points="203.13 18.35 208.27 9.33 218.65 9.27 223.9 18.23 218.75 27.25 208.37 27.31 203.13 18.35"/><polygon class="cls-7" points="187.53 207.75 192.67 198.73 203.05 198.68 208.29 207.64 203.15 216.66 192.77 216.71 187.53 207.75"/><polygon class="cls-7" points="187.53 189.72 192.67 180.69 203.05 180.64 208.29 189.6 203.15 198.62 192.77 198.68 187.53 189.72"/><polygon class="cls-7" points="187.53 171.68 192.67 162.66 203.05 162.6 208.29 171.56 203.15 180.58 192.77 180.64 187.53 171.68"/><polygon class="cls-7" points="187.53 153.64 192.67 144.62 203.05 144.56 208.29 153.52 203.15 162.54 192.77 162.6 187.53 153.64"/><polygon class="cls-7" points="187.53 135.6 192.67 126.58 203.05 126.52 208.29 135.48 203.15 144.5 192.77 144.56 187.53 135.6"/><polygon class="cls-7" points="187.53 117.56 192.67 108.54 203.05 108.48 208.29 117.44 203.15 126.46 192.77 126.52 187.53 117.56"/><polygon class="cls-7" points="187.53 99.52 192.67 90.5 203.05 90.44 208.29 99.41 203.15 108.42 192.77 108.48 187.53 99.52"/><polygon class="cls-7" points="187.53 81.48 192.67 72.46 203.05 72.41 208.29 81.37 203.15 90.39 192.77 90.44 187.53 81.48"/><polygon class="cls-7" points="187.53 45.41 192.67 36.39 203.05 36.33 208.29 45.29 203.15 54.31 192.77 54.37 187.53 45.41"/><polygon class="cls-7" points="187.53 27.37 192.67 18.35 203.05 18.29 208.29 27.25 203.15 36.27 192.77 36.33 187.53 27.37"/><polygon class="cls-7" points="171.93 198.73 177.07 189.72 187.45 189.66 192.69 198.62 187.55 207.64 177.17 207.69 171.93 198.73"/><polygon class="cls-7" points="171.93 180.69 177.07 171.68 187.45 171.62 192.69 180.58 187.55 189.6 177.17 189.66 171.93 180.69"/><polygon class="cls-7" points="171.93 162.66 177.07 153.64 187.45 153.58 192.69 162.54 187.55 171.56 177.17 171.62 171.93 162.66"/><polygon class="cls-7" points="171.93 144.62 177.07 135.6 187.45 135.54 192.69 144.5 187.55 153.52 177.17 153.58 171.93 144.62"/><polygon class="cls-7" points="171.93 126.58 177.07 117.56 187.45 117.5 192.69 126.46 187.55 135.48 177.17 135.54 171.93 126.58"/><polygon class="cls-7" points="171.93 108.54 177.07 99.52 187.45 99.46 192.69 108.42 187.55 117.44 177.17 117.5 171.93 108.54"/><polygon class="cls-7" points="171.93 90.5 177.07 81.48 187.45 81.42 192.69 90.39 187.55 99.41 177.17 99.46 171.93 90.5"/><polygon class="cls-7" points="171.93 72.46 177.07 63.44 187.45 63.39 192.69 72.35 187.55 81.37 177.17 81.42 171.93 72.46"/><polygon class="cls-7" points="171.93 54.42 177.07 45.41 187.45 45.35 192.69 54.31 187.55 63.33 177.17 63.39 171.93 54.42"/><polygon class="cls-7" points="156.32 171.68 161.46 162.66 171.84 162.6 177.09 171.56 171.94 180.58 161.56 180.64 156.32 171.68"/><polygon class="cls-7" points="156.32 153.64 161.46 144.62 171.84 144.56 177.09 153.52 171.94 162.54 161.56 162.6 156.32 153.64"/><polygon class="cls-7" points="156.32 135.6 161.46 126.58 171.84 126.52 177.09 135.48 171.94 144.5 161.56 144.56 156.32 135.6"/><polygon class="cls-7" points="156.32 117.56 161.46 108.54 171.84 108.48 177.09 117.44 171.94 126.46 161.56 126.52 156.32 117.56"/><polygon class="cls-7" points="156.32 99.52 161.46 90.5 171.84 90.44 177.09 99.41 171.94 108.42 161.56 108.48 156.32 99.52"/><polygon class="cls-7" points="156.32 81.48 161.46 72.46 171.84 72.41 177.09 81.37 171.94 90.39 161.56 90.44 156.32 81.48"/><polygon class="cls-7" points="156.32 63.44 161.46 54.42 171.84 54.37 177.09 63.33 171.94 72.35 161.56 72.41 156.32 63.44"/><polygon class="cls-7" points="140.72 162.66 145.86 153.64 156.24 153.58 161.48 162.54 156.34 171.56 145.96 171.62 140.72 162.66"/><polygon class="cls-7" points="140.72 144.62 145.86 135.6 156.24 135.54 161.48 144.5 156.34 153.52 145.96 153.58 140.72 144.62"/><polygon class="cls-7" points="140.72 126.58 145.86 117.56 156.24 117.5 161.48 126.46 156.34 135.48 145.96 135.54 140.72 126.58"/><polygon class="cls-7" points="140.72 108.54 145.86 99.52 156.24 99.46 161.48 108.42 156.34 117.44 145.96 117.5 140.72 108.54"/><polygon class="cls-7" points="125.12 153.64 130.26 144.62 140.64 144.56 145.88 153.52 140.74 162.54 130.36 162.6 125.12 153.64"/><polygon class="cls-7" points="125.12 135.6 130.26 126.58 140.64 126.52 145.88 135.48 140.74 144.5 130.36 144.56 125.12 135.6"/><polygon class="cls-7" points="109.51 126.58 114.65 117.56 125.03 117.5 130.28 126.46 125.14 135.48 114.75 135.54 109.51 126.58"/></g><g id="AB"><polygon class="cls-8" points="109.51 252.85 114.65 243.83 125.03 243.77 130.28 252.73 125.14 261.75 114.75 261.81 109.51 252.85"/><polygon class="cls-8" points="109.51 234.81 114.65 225.79 125.03 225.73 130.28 234.69 125.14 243.71 114.75 243.77 109.51 234.81"/><polygon class="cls-8" points="109.51 216.77 114.65 207.75 125.03 207.69 130.28 216.66 125.14 225.68 114.75 225.73 109.51 216.77"/><polygon class="cls-8" points="93.91 297.95 99.05 288.93 109.43 288.87 114.67 297.83 109.53 306.85 99.15 306.91 93.91 297.95"/><polygon class="cls-8" points="93.91 279.91 99.05 270.89 109.43 270.83 114.67 279.79 109.53 288.81 99.15 288.87 93.91 279.91"/><polygon class="cls-8" points="93.91 261.87 99.05 252.85 109.43 252.79 114.67 261.75 109.53 270.77 99.15 270.83 93.91 261.87"/><polygon class="cls-8" points="93.91 243.83 99.05 234.81 109.43 234.75 114.67 243.71 109.53 252.73 99.15 252.79 93.91 243.83"/><polygon class="cls-8" points="93.91 225.79 99.05 216.77 109.43 216.71 114.67 225.68 109.53 234.69 99.15 234.75 93.91 225.79"/><polygon class="cls-8" points="93.91 207.75 99.05 198.73 109.43 198.68 114.67 207.64 109.53 216.66 99.15 216.71 93.91 207.75"/><polygon class="cls-8" points="78.31 288.93 83.45 279.91 93.83 279.85 99.07 288.81 93.93 297.83 83.55 297.89 78.31 288.93"/><polygon class="cls-8" points="78.31 270.89 83.45 261.87 93.83 261.81 99.07 270.77 93.93 279.79 83.55 279.85 78.31 270.89"/><polygon class="cls-8" points="78.31 252.85 83.45 243.83 93.83 243.77 99.07 252.73 93.93 261.75 83.55 261.81 78.31 252.85"/><polygon class="cls-8" points="78.31 234.81 83.45 225.79 93.83 225.73 99.07 234.69 93.93 243.71 83.55 243.77 78.31 234.81"/><polygon class="cls-8" points="78.31 216.77 83.45 207.75 93.83 207.69 99.07 216.66 93.93 225.68 83.55 225.73 78.31 216.77"/><polygon class="cls-8" points="78.31 198.73 83.45 189.72 93.83 189.66 99.07 198.62 93.93 207.64 83.55 207.69 78.31 198.73"/><polygon class="cls-8" points="62.7 261.87 67.84 252.85 78.22 252.79 83.46 261.75 78.32 270.77 67.94 270.83 62.7 261.87"/><polygon class="cls-8" points="62.7 243.83 67.84 234.81 78.22 234.75 83.46 243.71 78.32 252.73 67.94 252.79 62.7 243.83"/></g><g id="NT"><polygon class="cls-9" points="156.32 207.75 161.46 198.73 171.84 198.68 177.09 207.64 171.94 216.66 161.56 216.71 156.32 207.75"/><polygon class="cls-9" points="156.32 189.72 161.46 180.69 171.84 180.64 177.09 189.6 171.94 198.62 161.56 198.68 156.32 189.72"/><polygon class="cls-9" points="140.72 198.73 145.86 189.72 156.24 189.66 161.48 198.62 156.34 207.64 145.96 207.69 140.72 198.73"/><polygon class="cls-9" points="140.72 180.69 145.86 171.68 156.24 171.62 161.48 180.58 156.34 189.6 145.96 189.66 140.72 180.69"/><polygon class="cls-9" points="140.72 72.46 145.86 63.44 156.24 63.39 161.48 72.35 156.34 81.37 145.96 81.42 140.72 72.46"/><polygon class="cls-9" points="125.12 189.72 130.26 180.69 140.64 180.64 145.88 189.6 140.74 198.62 130.36 198.68 125.12 189.72"/><polygon class="cls-9" points="125.12 171.68 130.26 162.66 140.64 162.6 145.88 171.56 140.74 180.58 130.36 180.64 125.12 171.68"/><polygon class="cls-9" points="125.12 117.56 130.26 108.54 140.64 108.48 145.88 117.44 140.74 126.46 130.36 126.52 125.12 117.56"/><polygon class="cls-9" points="125.12 99.52 130.26 90.5 140.64 90.44 145.88 99.41 140.74 108.42 130.36 108.48 125.12 99.52"/><polygon class="cls-9" points="125.12 81.48 130.26 72.46 140.64 72.41 145.88 81.37 140.74 90.39 130.36 90.44 125.12 81.48"/><polygon class="cls-9" points="109.51 198.73 114.65 189.72 125.03 189.66 130.28 198.62 125.14 207.64 114.75 207.69 109.51 198.73"/><polygon class="cls-9" points="109.51 180.69 114.65 171.68 125.03 171.62 130.28 180.58 125.14 189.6 114.75 189.66 109.51 180.69"/><polygon class="cls-9" points="109.51 162.66 114.65 153.64 125.03 153.58 130.28 162.54 125.14 171.56 114.75 171.62 109.51 162.66"/><polygon class="cls-9" points="109.51 144.62 114.65 135.6 125.03 135.54 130.28 144.5 125.14 153.52 114.75 153.58 109.51 144.62"/><polygon class="cls-9" points="109.51 90.5 114.65 81.48 125.03 81.42 130.28 90.39 125.14 99.41 114.75 99.46 109.51 90.5"/><polygon class="cls-9" points="93.91 189.72 99.05 180.69 109.43 180.64 114.67 189.6 109.53 198.62 99.15 198.68 93.91 189.72"/><polygon class="cls-9" points="93.91 171.68 99.05 162.66 109.43 162.6 114.67 171.56 109.53 180.58 99.15 180.64 93.91 171.68"/><polygon class="cls-9" points="93.91 153.64 99.05 144.62 109.43 144.56 114.67 153.52 109.53 162.54 99.15 162.6 93.91 153.64"/><polygon class="cls-9" points="93.91 135.6 99.05 126.58 109.43 126.52 114.67 135.48 109.53 144.5 99.15 144.56 93.91 135.6"/><polygon class="cls-9" points="93.91 117.56 99.05 108.54 109.43 108.48 114.67 117.44 109.53 126.46 99.15 126.52 93.91 117.56"/><polygon class="cls-9" points="78.31 180.69 83.45 171.68 93.83 171.62 99.07 180.58 93.93 189.6 83.55 189.66 78.31 180.69"/><polygon class="cls-9" points="78.31 162.66 83.45 153.64 93.83 153.58 99.07 162.54 93.93 171.56 83.55 171.62 78.31 162.66"/><polygon class="cls-9" points="78.31 144.62 83.45 135.6 93.83 135.54 99.07 144.5 93.93 153.52 83.55 153.58 78.31 144.62"/><polygon class="cls-9" points="78.31 126.58 83.45 117.56 93.83 117.5 99.07 126.46 93.93 135.48 83.55 135.54 78.31 126.58"/><polygon class="cls-9" points="78.31 108.54 83.45 99.52 93.83 99.46 99.07 108.42 93.93 117.44 83.55 117.5 78.31 108.54"/><polygon class="cls-9" points="62.7 171.68 67.84 162.66 78.22 162.6 83.46 171.56 78.32 180.58 67.94 180.64 62.7 171.68"/><polygon class="cls-9" points="62.7 153.64 67.84 144.62 78.22 144.56 83.46 153.52 78.32 162.54 67.94 162.6 62.7 153.64"/><polygon class="cls-9" points="62.7 135.6 67.84 126.58 78.22 126.52 83.46 135.48 78.32 144.5 67.94 144.56 62.7 135.6"/><polygon class="cls-9" points="62.7 117.56 67.84 108.54 78.22 108.48 83.46 117.44 78.32 126.46 67.94 126.52 62.7 117.56"/><polygon class="cls-9" points="62.7 99.52 67.84 90.5 78.22 90.44 83.46 99.41 78.32 108.42 67.94 108.48 62.7 99.52"/></g><g id="BC"><polygon class="cls-10" points="15.89 198.73 21.03 189.72 31.41 189.66 36.65 198.62 31.51 207.64 21.13 207.69 15.89 198.73"/><polygon class="cls-10" points="31.5 261.87 36.64 252.85 47.02 252.79 52.26 261.75 47.12 270.77 36.74 270.83 31.5 261.87"/><polygon class="cls-10" points="62.7 297.95 67.84 288.93 78.22 288.87 83.46 297.83 78.32 306.85 67.94 306.91 62.7 297.95"/><polygon class="cls-10" points="62.7 279.91 67.84 270.89 78.22 270.83 83.46 279.79 78.32 288.81 67.94 288.87 62.7 279.91"/><polygon class="cls-10" points="62.7 225.79 67.84 216.77 78.22 216.71 83.46 225.68 78.32 234.69 67.94 234.75 62.7 225.79"/><polygon class="cls-10" points="62.7 207.75 67.84 198.73 78.22 198.68 83.46 207.64 78.32 216.66 67.94 216.71 62.7 207.75"/><polygon class="cls-10" points="47.1 288.93 52.24 279.91 62.62 279.85 67.86 288.81 62.72 297.83 52.34 297.89 47.1 288.93"/><polygon class="cls-10" points="47.1 270.89 52.24 261.87 62.62 261.81 67.86 270.77 62.72 279.79 52.34 279.85 47.1 270.89"/><polygon class="cls-10" points="47.1 252.85 52.24 243.83 62.62 243.77 67.86 252.73 62.72 261.75 52.34 261.81 47.1 252.85"/><polygon class="cls-10" points="47.1 234.81 52.24 225.79 62.62 225.73 67.86 234.69 62.72 243.71 52.34 243.77 47.1 234.81"/><polygon class="cls-10" points="47.1 216.77 52.24 207.75 62.62 207.69 67.86 216.66 62.72 225.68 52.34 225.73 47.1 216.77"/><polygon class="cls-10" points="47.1 198.73 52.24 189.72 62.62 189.66 67.86 198.62 62.72 207.64 52.34 207.69 47.1 198.73"/><polygon class="cls-10" points="31.5 279.91 36.64 270.89 47.02 270.83 52.26 279.79 47.12 288.81 36.74 288.87 31.5 279.91"/><polygon class="cls-10" points="31.5 243.83 36.64 234.81 47.02 234.75 52.26 243.71 47.12 252.73 36.74 252.79 31.5 243.83"/><polygon class="cls-10" points="31.5 225.79 36.64 216.77 47.02 216.71 52.26 225.68 47.12 234.69 36.74 234.75 31.5 225.79"/><polygon class="cls-10" points="31.5 207.75 36.64 198.73 47.02 198.68 52.26 207.64 47.12 216.66 36.74 216.71 31.5 207.75"/><polygon class="cls-10" points="31.5 189.72 36.64 180.69 47.02 180.64 52.26 189.6 47.12 198.62 36.74 198.68 31.5 189.72"/><polygon class="cls-10" points="15.89 270.89 21.03 261.87 31.41 261.81 36.65 270.77 31.51 279.79 21.13 279.85 15.89 270.89"/><polygon class="cls-10" points="15.89 252.85 21.03 243.83 31.41 243.77 36.65 252.73 31.51 261.75 21.13 261.81 15.89 252.85"/><polygon class="cls-10" points="15.89 234.81 21.03 225.79 31.41 225.73 36.65 234.69 31.51 243.71 21.13 243.77 15.89 234.81"/><polygon class="cls-10" points="15.89 216.77 21.03 207.75 31.41 207.69 36.65 216.66 31.51 225.68 21.13 225.73 15.89 216.77"/><polygon class="cls-10" points="15.89 180.69 21.03 171.68 31.41 171.62 36.65 180.58 31.51 189.6 21.13 189.66 15.89 180.69"/></g><g id="YT"><polygon class="cls-11" points="31.5 135.6 36.64 126.58 47.02 126.52 52.26 135.48 47.12 144.5 36.74 144.56 31.5 135.6"/><polygon class="cls-11" points="47.1 180.69 52.24 171.68 62.62 171.62 67.86 180.58 62.72 189.6 52.34 189.66 47.1 180.69"/><polygon class="cls-11" points="47.1 162.66 52.24 153.64 62.62 153.58 67.86 162.54 62.72 171.56 52.34 171.62 47.1 162.66"/><polygon class="cls-11" points="47.1 144.62 52.24 135.6 62.62 135.54 67.86 144.5 62.72 153.52 52.34 153.58 47.1 144.62"/><polygon class="cls-11" points="47.1 126.58 52.24 117.56 62.62 117.5 67.86 126.46 62.72 135.48 52.34 135.54 47.1 126.58"/><polygon class="cls-11" points="47.1 108.54 52.24 99.52 62.62 99.46 67.86 108.42 62.72 117.44 52.34 117.5 47.1 108.54"/><polygon class="cls-11" points="31.5 171.68 36.64 162.66 47.02 162.6 52.26 171.56 47.12 180.58 36.74 180.64 31.5 171.68"/><polygon class="cls-11" points="31.5 153.64 36.64 144.62 47.02 144.56 52.26 153.52 47.12 162.54 36.74 162.6 31.5 153.64"/><polygon class="cls-11" points="31.5 117.56 36.64 108.54 47.02 108.48 52.26 117.44 47.12 126.46 36.74 126.52 31.5 117.56"/><polygon class="cls-11" points="31.5 99.52 36.64 90.5 47.02 90.44 52.26 99.41 47.12 108.42 36.74 108.48 31.5 99.52"/><polygon class="cls-11" points="15.89 144.62 21.03 135.6 31.41 135.54 36.65 144.5 31.51 153.52 21.13 153.58 15.89 144.62"/><polygon class="cls-11" points="15.89 126.58 21.03 117.56 31.41 117.5 36.65 126.46 31.51 135.48 21.13 135.54 15.89 126.58"/><polygon class="cls-11" points="0.29 153.64 5.43 144.62 15.81 144.56 21.05 153.52 15.91 162.54 5.53 162.6 0.29 153.64"/></g></svg>